<svg width="820" height="1700" xmlns="http://www.w3.org/2000/svg"><path d="M172.057 1389.938c27.89-.78 55.81 3.16 81.94 13.06l3.21 1.18c36.49 14.21 61.34 41.93 78.07 76.45 22.27 51.23 11.1 118.43-8.28 168.37-6.52 15.8-13.7 32.27-24 46l-1 3h-202c-25.28-49.08-46.3-99.42-56-154-.16-.91-.32-1.81-.49-2.75-3.99-22.97-4.92-48.45.49-71.25.25-1.08.25-1.08.51-2.18 5.49-23 18.5-41.92 38.49-54.94 26.52-15.48 58.63-22.02 89.06-22.94z" fill="#fa9cd1"/><path d="M548.14-1.113c1.04-.01 2.08-.01 3.16-.02 3.5-.01 7.01.01 10.51.03 2.51-.01 5.02-.01 7.53-.02 6.11-.01 12.22 0 18.34.02 7.12.02 14.24.02 21.36.02 12.72-.01 25.43.02 38.14.05 12.33.03 24.66.05 36.99.04 13.42-.01 26.85 0 40.27.02h2.16c1.43 0 2.85 0 4.28.01h14.88c6.69 0 13.37.01 20.06.04 2.45.01 4.9.01 7.35.01 3.35-.01 6.71.01 10.06.03l2.93-.02c9.36.09 18.415-.3 30.709.922 1.31 2.06.282 10.183.282 10.183-.151 5.337-.381 7.122-.152 9.305.28 18.88.49 37.76.62 56.64.06 8.77.15 17.54.29 26.3.12 7.65.19 15.29.22 22.94.02 4.04.05 8.09.14 12.13.08 3.81.11 7.62.09 11.44 0 1.39.03 2.79.07 4.18.19 6.09.24 10.58-4.04 15.17-2.94 2.39-6.1 4.33-9.39 6.2-.79.48-1.59.95-2.41 1.44-1.85 1.07-3.72 2.02-5.65 2.94-.68.32-1.35.65-2.04.99-5.46 2.58-10.95 4.52-16.9 5.63-1.45.27-1.45.27-2.93.55-48.95 6.65-106.4-10.37-149.79-32.39-2.42-1.23-4.85-2.43-7.28-3.64-25.11-12.41-49.46-25.83-70.94-44.02-.58-.49-1.17-.98-1.77-1.49-2.86-2.49-4.69-4.6-6.29-8.01-1.48-.49-1.48-.49-3-1-1.68-1.67-1.68-1.67-3.44-3.75-.57-.67-1.15-1.35-1.74-2.05-.6-.72-1.2-1.45-1.82-2.2-.66-.79-1.32-1.59-2-2.4-2.07-2.69-3.83-5.43-5.56-8.35-.58-.96-1.16-1.93-1.76-2.92-3.81-7.54-5.21-14.21-5.12-22.64l.03-2.8c.17-7.24 1.33-13.29 4.41-19.89.42-.98.85-1.96 1.29-2.96 3.59-7.78 8.38-14.36 13.71-21.04.5-.87.99-1.73 1.5-2.63 3.85-3.65 7.52-3.06 12.64-2.99z" fill="#defd21"/><path d="M821 1542v156H710c0-23.05 8.85-45.71 19.5-65.88.56-1.07 1.11-2.15 1.68-3.25 2.95-5.62 6.03-10.79 9.82-15.87 1-1.67 2-3.33 3-5 4.89-6.94 10.13-13.46 15.88-19.7 1.94-2.1 3.82-4.25 5.68-6.42 13.7-15.69 30.11-28.11 48.44-37.88 1.09-.6 1.09-.6 2.21-1.21 1.79-.79 1.79-.79 4.79-.79z" fill="#f55bfc"/><path d="M555.948 1634.877c2.21 1.21 4.43 2.37 6.66 3.54 8.02 4.26 15.26 8.57 22.03 14.67 2.34 2.04 2.34 2.04 5.35 3.35 3.41 1.77 5.34 3.8 8.01 6.56 1.42 1.41 2.84 2.82 4.25 4.23 2.18 2.16 4.36 4.33 6.54 6.5 1.14 1.14 2.28 2.28 3.43 3.41 1.67 1.66 3.34 3.32 5 4.98.51.5 1.01 1 1.53 1.52 8.88 8.88 8.88 8.88 10.25 14.36h-177c1.13-11.28 1.13-11.28 2.75-16.28.36-1.1.71-2.2 1.08-3.33.39-1.14.77-2.28 1.17-3.45.41-1.19.81-2.38 1.23-3.6 5.91-16.95 14.3-36.38 31.08-45.09 22.62-9.97 46.04-2.69 66.64 8.63z" fill="#a851fb"/><path d="M0 1122l2.767 2L6 1126c.57.27 1.14.54 1.73.81 2.35 1.23 4.39 2.62 6.52 4.19.71.52 1.41 1.03 2.14 1.56.8.71.8.71 1.61 1.44l.935 1.102s.596.82.99 1.367c.628.78 19.515 27.041 23.395 39.741 2.3 9.5 3.21 21.32.68 30.79-.1 1.5-.18 3-.25 4.5-2.77 31.94-19.55 70.43-41.75 93.5l-2 1z" fill="#288eda"/><path d="M35 408c5.02 7.16 2.03 21.33 1.19 29.69-.11 1.13-.11 1.13-.21 2.28-.63 5.55-2.04 9.09-5.98 13.03-8.25 1.71-15.16-1.63-22-6-3.68-3.27-5.43-6.1-6-11-.12-9.2 1.59-17.55 7.25-24.94 7.48-5.61 17.13-7.27 25.75-3.06z" fill="#86e9b1"/></svg>